# xmcd
#
# Track frame offsets: 
#        182
#        11482
#        26742
#        40965
#        53632
#        63567
#        73555
#        85512
#        96815
#        112732
#        122620
#        139512
#        153995
#        166760
#        179757
#        192835
#        203305
#        213552
#        225362
#        236230
#
# Disc length: 3258 seconds
#
# Revision: 1
# Processed by: cddbd v1.5.2PL0 Copyright (c) Steve Scherf et al.
# Submitted via: ExactAudioCopyFreeDBPlugin 1.0
#
DISCID=fe0cb814
DTITLE=Lloyd Green - Steels The Hits
DYEAR=1992
DGENRE=Country
TTITLE0=Misty Moonlight
TTITLE1=Ruby Don't Take Your Love To Town
TTITLE2=Woman Woman
TTITLE3=My Elusive Dreams
TTITLE4=Crazy Arms
TTITLE5=Too Much Of You
TTITLE6=There Goes My Everything
TTITLE7=Take These Chains From My Heart
TTITLE8=Moody River
TTITLE9=No Another Time
TTITLE10=Moon River
TTITLE11=Feelings
TTITLE12=My Love
TTITLE13=A Little Bit More
TTITLE14=You and Me
TTITLE15=Amie
TTITLE16=Desperado
TTITLE17=Kiss The Moonlight
TTITLE18=Edgewater Beach
TTITLE19=Stainless Steel
EXTD=
EXTT0=
EXTT1=
EXTT2=
EXTT3=
EXTT4=
EXTT5=
EXTT6=
EXTT7=
EXTT8=
EXTT9=
EXTT10=
EXTT11=
EXTT12=
EXTT13=
EXTT14=
EXTT15=
EXTT16=
EXTT17=
EXTT18=
EXTT19=
PLAYORDER=
